<?xml version="1.0" encoding="UTF-8" standalone="no"?> 
<svg xmlns="http://www.w3.org/2000/svg" viewBox="0 0 21.74 49"><defs><style>.cls-1{fill:none;stroke:#333;stroke-linecap:round;stroke-linejoin:round;stroke-width:2px;}</style></defs><title>Asset 21</title><g id="Layer_2" data-name="Layer 2"><g id="Layer_2-2" data-name="Layer 2"><path class="cls-1" d="M15.73,10.42a4.86,4.86,0,0,1-9.72,0C6,7.73,10.87,1,10.87,1S15.73,7.73,15.73,10.42Z"/>
<path class="cls-1" d="M1,30.16V33.8C1,38.33,5.29,42,10.59,42h0S13.43,32.28,1,30.16Z"/>
<path class="cls-1" d="M20.74,30.16V33.8c0,4.53-4.29,8.2-9.59,8.2h0S8.31,32.28,20.74,30.16Z"/>
<path class="cls-1" d="M1,20.74v3.64c0,4.53,4.29,8.21,9.59,8.21h0S13.43,22.87,1,20.74Z"/>
<path class="cls-1" d="M20.74,20.74v3.64c0,4.53-4.29,8.21-9.59,8.21h0S8.31,22.87,20.74,20.74Z"/>
<path class="cls-1" d="M1,11.39V15c0,4.53,4.29,8.2,9.59,8.2h0S13.43,13.51,1,11.39Z"/>
<path class="cls-1" d="M20.74,11.39V15c0,4.53-4.29,8.2-9.59,8.2h0S8.31,13.51,20.74,11.39Z"/>
<line class="cls-1" x1="10.86" y1="42" x2="10.86" y2="48"/></g></g></svg>